<?xml version="1.0" standalone="no"?><!DOCTYPE svg PUBLIC "-//W3C//DTD SVG 1.1//EN" "http://www.w3.org/Graphics/SVG/1.1/DTD/svg11.dtd"><svg t="1637110896997" class="icon" viewBox="0 0 1024 1024" version="1.1" xmlns="http://www.w3.org/2000/svg" p-id="3241" xmlns:xlink="http://www.w3.org/1999/xlink" width="640" height="640"><defs><style type="text/css"></style></defs><path d="M960.2 245.3L802.3 96.2h-578L66.5 245.3h-0.1v608.2c0 41.1 33.4 74.5 74.5 74.5h744.9c41.1 0 74.5-33.4 74.5-74.5l-0.1-608.2z m-715.7-98.5h537.6l104.4 98.5H140.1l104.4-98.5z m666 706.7c0 13.7-11.1 24.8-24.8 24.8H140.8c-13.7 0-24.8-11.1-24.8-24.8V295h794.5v558.5z" fill="#24BC77" p-id="3242"></path><path d="M494.7 743.2c1.2 1.2 2.6 2.3 4 3.3 0.7 0.4 1.4 0.7 2 1.1 0.8 0.5 1.6 0.9 2.5 1.3 0.9 0.4 1.8 0.6 2.7 0.8 0.7 0.2 1.5 0.5 2.2 0.7 1.7 0.3 3.4 0.5 5.1 0.5 1.7 0 3.4-0.2 5.1-0.5 0.8-0.2 1.5-0.5 2.3-0.7 0.9-0.3 1.8-0.5 2.6-0.8 0.9-0.4 1.7-0.9 2.6-1.4 0.6-0.4 1.3-0.6 2-1.1 1.4-1 2.8-2.1 4-3.3l101.3-101.3c10.3-10.3 10.3-26.9 0-37.2-10.3-10.3-26.9-10.3-37.2 0L539.5 661V457.5c0-14.5-11.8-26.3-26.3-26.3s-26.3 11.8-26.3 26.3v203.7l-56.4-56.4c-10.3-10.3-26.9-10.3-37.2 0-10.3 10.3-10.3 26.9 0 37.2l101.4 101.2z" fill="#24BC77" p-id="3243"></path></svg>